HIERARCHY
ROOT Spine
{
    OFFSET 0.0 0.0 -0.0
    CHANNELS 6 Xposition Yposition Zposition Zrotation Xrotation Yrotation
    JOINT ShoulderCenter
    {
        OFFSET 0.0 23.078266143798828 0.0
        CHANNELS 3 Zrotation Xrotation Yrotation
        JOINT LeftShoulder
        {
            OFFSET 16.376724243164062 0.0 0.0
            CHANNELS 3 Zrotation Xrotation Yrotation
            JOINT LeftElbow
            {
                OFFSET 23.432689666748047 0.0 0.0
                CHANNELS 3 Zrotation Xrotation Yrotation
                JOINT LeftHand
                {
                    OFFSET 23.67168617248535 0.0 0.0
                    CHANNELS 3 Zrotation Xrotation Yrotation
                    End Site
                    {
                        OFFSET 9.468674659729004 0.0 0.0
                    }
                }
            }
        }
        JOINT RightShoulder
        {
            OFFSET -16.376724243164062 0.0 0.0
            CHANNELS 3 Zrotation Xrotation Yrotation
            JOINT RightElbow
            {
                OFFSET -23.432689666748047 0.0 0.0
                CHANNELS 3 Zrotation Xrotation Yrotation
                JOINT RightHand
                {
                    OFFSET -23.67168617248535 0.0 0.0
                    CHANNELS 3 Zrotation Xrotation Yrotation
                    End Site
                    {
                        OFFSET -9.468674659729004 0.0 0.0
                    }
                }
            }
        }
        End Site
        {
            OFFSET 0.0 9.231306076049805 0.0
        }
    }
    JOINT LeftHip
    {
        OFFSET 22.41887708893592 -22.41887708893592 0.0
        CHANNELS 3 Zrotation Xrotation Yrotation
        JOINT LeftKnee
        {
            OFFSET 0.0 -31.095796585083008 0.0
            CHANNELS 3 Zrotation Xrotation Yrotation
            JOINT LeftFoot
            {
                OFFSET 0.0 -36.806663513183594 0.0
                CHANNELS 3 Zrotation Xrotation Yrotation
                End Site
                {
                    OFFSET 0.0 0.0 14.722665786743164
                }
            }
        }
    }
    JOINT RightHip
    {
        OFFSET -22.41887708893592 -22.41887708893592 0.0
        CHANNELS 3 Zrotation Xrotation Yrotation
        JOINT RightKnee
        {
            OFFSET 0.0 -31.095796585083008 0.0
            CHANNELS 3 Zrotation Xrotation Yrotation
            JOINT RightFoot
            {
                OFFSET 0.0 -36.806663513183594 0.0
                CHANNELS 3 Zrotation Xrotation Yrotation
                End Site
                {
                    OFFSET 0.0 0.0 14.722665786743164
                }
            }
        }
    }
}
MOTION
Frames: 11
Frame Time: 0.03333333333333333
31.137100219726562 13.76300048828125 -292.7023010253906 4.7948825054062985 2.709324117288359 21.71783416576284 2.493273617698325e-08 2.087062804069999e-07 -173.44964024331807 -64.76329686741134 -53.14447827760976 0.7975909273912923 -3.479254219390985e-07 3.3515193262240576e-06 59.59793170755456 3.1805546814635168e-15 -4.770832022195275e-15 1.3241718894150476e-31 83.65521581094194 -54.90975605745042 0.8976055170546563 -1.5340115447528511e-06 -5.1540901445022035e-06 -23.112517669344818 1.987846675914698e-15 3.975693351829396e-15 1.5902773407317584e-15 -8.405195800490718 15.164907542643784 -50.66583440847055 23.952669593170278 -11.394323839742325 75.57763414825473 -4.224246261805816e-33 -1.3914926731402886e-15 -3.4787316828507215e-16 -11.560926308048257 8.465861916715685 69.52632575568722 -19.280595646763203 -4.944390973879053 -127.24758341132453 -1.9878466759146975e-16 -1.6151254241806917e-15 1.1802839638243517e-15
31.059200286865234 13.791600227355957 -292.71441650390625 4.617011390784528 2.804226218809319 21.06500486059029 4.432619498148746e-07 3.7370448884811423e-07 -173.1025545283827 -63.382767469474004 -52.94687274372326 -1.3662246751486085 -9.900987034742395e-07 -4.2952947765358266e-07 72.10943478138688 -1.5448672043175555e-31 5.5659706925611536e-15 3.1805546814635164e-15 83.45230761788072 -50.23365922222937 0.7819373635035219 -2.0995757779354834e-06 -8.887719852515353e-07 -21.826517338093254 -5.963540027744096e-16 -4.138037154422024e-33 7.951386703658794e-16 -8.139364128469406 14.776380521279295 -50.62334485168988 23.631209049759683 -11.180398096488798 75.9639694692417 -7.951386703658791e-16 -1.987846675914697e-16 -8.895613874718273e-15 -11.246597619347575 7.716642141388883 67.34736794830229 -18.604710308933395 -5.415992279681219 -123.92883644880182 -9.93923337957349e-17 -1.2015394341616032e-33 1.3852806522780551e-15
30.99159812927246 13.846999168395996 -292.7289123535156 4.475808354962292 2.870829541246899 20.764324970288968 6.266806791831598e-07 -1.260293179880237e-07 -173.40666002851736 -62.22833088403621 -55.29484248969037 0.09750625806629529 -1.623881852329985e-06 1.2351535680171193e-06 85.73334877619492 0.0 0.0 2.3854160110976376e-15 83.64662061310723 -47.950245628245526 1.639305444293516 -1.8801626881527577e-06 1.6877893107071138e-06 -21.935955528608652 7.951386703658792e-16 1.6552148617688095e-32 2.3854160110976376e-15 -7.918791900306407 14.606980066604304 -50.72239267059408 23.57502834457209 -11.146859447461791 76.20121968364904 -7.951386703658794e-16 1.4483130040477084e-32 -2.0872390097104334e-15 -11.040589222469382 7.35635989993821 66.29177031397225 -18.278654204172398 -5.661125639653855 -121.5351032013628 6.212020862233433e-16 -1.5902773407317588e-15 3.0035120868898648e-15
30.951801300048828 13.907400131225586 -292.7051086425781 4.39950738816491 2.9902511190720427 20.379568966218592 -6.504946523689529e-07 -3.0020385828824e-08 -174.0222985821692 -60.61991661908126 -49.43248683924011 1.6928920749369296 -4.495747194961431e-06 2.3103789033723093e-06 101.10631934194667 -3.975693351829397e-16 5.517382872562698e-33 -1.5902773407317588e-15 83.95630080332126 -45.55521805425294 2.850720349905686 3.108798027385017e-06 4.486027772676589e-06 -22.618514923705163 9.144094709207609e-15 -7.951386703658796e-16 -4.770832022195274e-15 -7.975709102826228 14.555632380041533 -50.59448796050286 23.886587991850615 -11.147584737549606 76.85217428504377 -9.483001812217137e-33 1.9878466759146975e-16 5.466578358765418e-15 -11.128887417930274 7.13885521768389 66.7526308948786 -17.41680492588097 -5.817528930645149 -115.11152135317901 9.939233379573492e-17 -1.5902773407317584e-15 1.1927080055488188e-15
30.882497787475586 13.966499328613281 -292.6913146972656 4.234637603833025 3.0197895448125656 20.126622690248503 4.572152030786793e-07 4.7564496001323463e-08 -173.864997452526 -59.8910713211624 -46.1681782787664 1.8625420124323113 -7.207402687663971e-07 -2.0585601945593106e-06 113.93087589855179 0.0 0.0 0.0 83.02333545398649 -47.2150687825402 2.6577573081041477 3.4667789902227623e-06 -1.9338304200437614e-06 -21.725059874784574 -1.987846675914698e-16 3.1805546814635164e-15 7.951386703658791e-16 -7.626671458330767 14.44772902168289 -51.12649100136161 24.06684688067294 -11.090618895372623 78.78597928320994 3.975693351829397e-16 -1.9878466759146985e-16 2.435112177995506e-15 -10.947256343590746 7.0383960919090365 65.8222681712761 -17.00253351477741 -6.350770060761772 -109.45021858097631 -2.4246311451691544e-34 -2.4848083448933722e-17 -1.1181637552020173e-15
30.84869956970215 14.066499710083008 -292.7012023925781 4.123060198354479 3.110852192356214 21.072450997366833 -4.154201925718622e-08 2.0639386222475518e-07 -175.35090153923798 -59.54913353454818 -46.807588359383445 2.5363575541575907 -1.6743497721921237e-06 -1.6903137652147442e-06 125.13679380696512 0.0 9.939233379573489e-17 0.0 83.63989773477988 -47.76733069101018 3.7075789176965914 -1.4377609561000804e-06 -4.481677131132441e-06 -22.104869194494675 7.553817368475852e-15 -7.951386703658792e-16 5.241513728934563e-32 -7.1876120412559805 14.124179952508706 -51.404729053408765 23.551214486941436 -11.24784542735135 78.96656893638975 1.2069275033730902e-33 1.987846675914698e-16 -6.957463365701443e-16 -11.173587568649696 7.261067093651091 66.1655625487303 -16.92155438494327 -6.942366528364021 -106.0790073176802 -9.939233379573489e-17 1.691853732406921e-33 -1.950574550741297e-15
30.815101623535156 14.156200408935547 -292.6039123535156 3.936775521498022 3.5019549340509353 21.480357158552238 2.008258569373164e-08 1.820458513570517e-07 -175.9808082815306 -58.22276596676266 -48.450674397721514 2.7563883709915307 -5.138343904701965e-06 -3.657166458226758e-06 129.1451120291142 -8.827812596100317e-32 -6.3611093629270335e-15 -1.5902773407317584e-15 83.65869918256662 -44.58354045892636 3.2446245355018886 1.1157068982094986e-07 3.217386764978258e-06 -20.102164682782714 5.168401357378215e-15 -7.951386703658794e-16 -3.975693351829396e-15 -6.999259143079205 13.707466334862824 -51.49207313013053 23.43168943814783 -11.393154654644079 79.44902783632413 3.975693351829396e-16 -1.0345092886055059e-32 -2.9817700138720468e-15 -10.985480983261676 7.13128657766906 65.23742549310731 -17.18340823541095 -7.341730162153053 -105.14959276837591 1.9878466759146977e-16 -1.6027013824562253e-15 -1.3666445896913548e-15
30.773698806762695 14.165300369262695 -292.5263977050781 3.813244841631965 3.824990981330132 21.013233875749894 3.122149427373269e-08 1.77086360855719e-07 -175.40032591677073 -56.59301171587009 -48.67586623606038 3.15720945888037 -8.440049777093452e-07 3.0056054687924975e-07 132.3099363059414 0.0 1.987846675914698e-16 0.0 82.813037522492 -46.275639280208125 2.5183426504483726 1.985254792248995e-06 -2.190213577359427e-06 -21.648438742374893 -2.3854160110976376e-15 1.6552148617688095e-32 -7.951386703658792e-16 -7.005755055783893 13.465606102947907 -51.47714086496204 23.545876648263224 -11.366658367735912 79.89304168852418 0.0 0.0 2.286023677301903e-15 -10.973258011226893 6.747752054572546 65.2109220661359 -17.424531064670106 -7.351640915285158 -107.77938348377958 -4.969616689786745e-17 6.277100631382367e-34 -1.4474008609003895e-15
30.775800704956055 14.217899322509766 -292.4736022949219 3.5717537546791323 4.20388418981385 20.735285056176288 2.41508785302229e-07 6.727037874244815e-08 -175.57763705836084 -54.507979544675166 -49.489752357357915 4.23526133975728 -3.306087956385038e-06 -1.83094809792541e-06 134.31590815679206 3.1805546814635168e-15 6.5598940305185035e-15 -1.8207363479456905e-31 83.50877278034218 -46.026675750655045 2.6734133321859854 5.569337854288063e-07 -2.8326135152706548e-06 -20.20550592126344 -6.1623246953355635e-15 1.2827915178708273e-31 -2.3854160110976376e-15 -6.997533120357708 13.021274931650725 -51.05618704880537 23.578449067803952 -11.417582747404982 80.33090547112056 -3.4483642953516864e-33 -1.5902773407317582e-15 -2.484808344893372e-16 -10.898136458925276 6.385445686267407 65.10351847449023 -17.528693152725392 -7.791053946697895 -107.9713273091079 6.21202086223343e-17 7.765026077791784e-19 -7.357362208707719e-16
30.783199310302734 14.237899780273438 -292.4551086425781 3.3964037852421693 4.554602536594523 20.12053887672078 -2.2542669809718574e-07 -6.362284646150256e-08 -176.07475706368703 -52.60563580960577 -50.72244094868562 6.480710783973613 4.4616546940737395e-06 3.608936399610216e-06 135.3928076410117 8.827812596100317e-32 6.3611093629270335e-15 -1.5902773407317584e-15 84.43486929933746 -43.31338792197037 4.183643841270955 -1.1405678773028121e-06 1.1345183802257716e-06 -20.89762306879506 -2.9817700138720468e-15 1.0345092886055059e-31 -3.975693351829396e-15 -7.207175025583944 12.524773056994334 -49.968918273985395 23.616166015078306 -11.409030290120194 80.55414025688366 3.975693351829395e-16 -1.9878466759146977e-16 -6.5101978636206345e-15 -11.102208887973628 5.815430723076746 65.50033238390269 -17.76463494367351 -7.959327946932238 -112.0916013998756 2.981770013872047e-16 -1.5902773407317584e-15 6.646862322589771e-16
30.782398223876953 14.243499755859375 -292.4521789550781 3.171250558040473 4.908536579722836 18.239679587950945 1.3455186766485886e-07 8.482308126898871e-07 -174.06696858468263 -51.64031466269287 -49.6425536461253 7.71544593513415 7.588376871683635e-07 -1.031251542638416e-06 135.4063501928532 0.0 0.0 1.5902773407317582e-15 83.0005825731362 -48.48177986145021 3.0775218751778532 5.7881777075643675e-06 -3.2695375329786402e-06 -20.545006040009206 2.3854160110976368e-15 3.310429723537619e-32 1.590277340731758e-15 -7.406861245477903 11.732761639016509 -47.93243256505238 23.518187819240648 -11.437867733672181 81.97577594206503 0.0 0.0 4.969616689786745e-16 -11.136068218620432 4.206483352547201 63.62315703178031 -16.261450391709495 -8.923521467811783 -110.78587273973572 -9.939233379573489e-17 2.484808344893372e-17 3.2550989318103172e-15
